HIERARCHY
ROOT joint_Root
{
	OFFSET 0.0 0.0 0.0
	CHANNELS 6 Xposition Yposition Zposition Zrotation Xrotation Yrotation 
	JOINT Hips
	{
		OFFSET -17.1583 93.1646 452.98
		CHANNELS 6 Xposition Yposition Zposition Zrotation Xrotation Yrotation 
		JOINT Spine
		{
			OFFSET 15.7357 0.0 0.0
			CHANNELS 6 Xposition Yposition Zposition Zrotation Xrotation Yrotation 
			JOINT Chest
			{
				OFFSET 8.98455 -0.406207 0.0
				CHANNELS 6 Xposition Yposition Zposition Zrotation Xrotation Yrotation 
				JOINT Neck
				{
					OFFSET 16.3773 0.0 0.0
					CHANNELS 6 Xposition Yposition Zposition Zrotation Xrotation Yrotation 
					JOINT Head
					{
						OFFSET 6.45672 0.0 0.0
						CHANNELS 6 Xposition Yposition Zposition Zrotation Xrotation Yrotation 
						End Site
						{
							OFFSET 0.0 0.0 0.0
						}
					}
				}
				JOINT Shoulder_L
				{
					OFFSET 12.9942 -0.242716 4.98039
					CHANNELS 6 Xposition Yposition Zposition Zrotation Xrotation Yrotation 
					JOINT UpperArm_L
					{
						OFFSET 5.34809 0.0 0.0
						CHANNELS 6 Xposition Yposition Zposition Zrotation Xrotation Yrotation 
						JOINT LowerArm_L
						{
							OFFSET 24.3286 1.87007e-05 0.0
							CHANNELS 6 Xposition Yposition Zposition Zrotation Xrotation Yrotation 
							JOINT Hand_L
							{
								OFFSET 22.2916 0.0 0.0
								CHANNELS 6 Xposition Yposition Zposition Zrotation Xrotation Yrotation 
								End Site
								{
									OFFSET 0.0 0.0 0.0
								}
							}
						}
					}
				}
				JOINT Shoulder_R
				{
					OFFSET 12.9945 -0.242716 -4.98039
					CHANNELS 6 Xposition Yposition Zposition Zrotation Xrotation Yrotation 
					JOINT UpperArm_R
					{
						OFFSET -5.34813 0.0 0.0
						CHANNELS 6 Xposition Yposition Zposition Zrotation Xrotation Yrotation 
						JOINT LowerArm_R
						{
							OFFSET -24.3289 0.000322201 0.0
							CHANNELS 6 Xposition Yposition Zposition Zrotation Xrotation Yrotation 
							JOINT Hand_R
							{
								OFFSET -22.2915 -0.000108084 0.0
								CHANNELS 6 Xposition Yposition Zposition Zrotation Xrotation Yrotation 
								End Site
								{
									OFFSET 0.0 0.0 0.0
								}
							}
						}
					}
				}
			}
		}
		JOINT UpperLeg_L
		{
			OFFSET -2.19248 -6.46944 0.0
			CHANNELS 6 Xposition Yposition Zposition Zrotation Xrotation Yrotation 
			JOINT LowerLeg_L
			{
				OFFSET 39.0811 0.0 -1.23785e-05
				CHANNELS 6 Xposition Yposition Zposition Zrotation Xrotation Yrotation 
				JOINT Foot_L
				{
					OFFSET 40.9854 0.0 -1.26872e-05
					CHANNELS 6 Xposition Yposition Zposition Zrotation Xrotation Yrotation 
					JOINT Toes_L
					{
						OFFSET 11.7543 0.0 0.0
						CHANNELS 6 Xposition Yposition Zposition Zrotation Xrotation Yrotation 
						End Site
						{
							OFFSET 0.0 0.0 0.0
						}
					}
				}
			}
		}
		JOINT UpperLeg_R
		{
			OFFSET -2.19251 6.46944 0.0
			CHANNELS 6 Xposition Yposition Zposition Zrotation Xrotation Yrotation 
			JOINT LowerLeg_R
			{
				OFFSET -39.0811 -0.00228153 -0.0401928
				CHANNELS 6 Xposition Yposition Zposition Zrotation Xrotation Yrotation 
				JOINT Foot_R
				{
					OFFSET -40.9854 0.0 0.0
					CHANNELS 6 Xposition Yposition Zposition Zrotation Xrotation Yrotation 
					JOINT Toes_R
					{
						OFFSET -11.7543 0.0 0.0
						CHANNELS 6 Xposition Yposition Zposition Zrotation Xrotation Yrotation 
						End Site
						{
							OFFSET 0.0 0.0 0.0
						}
					}
				}
			}
		}
	}
}
MOTION
Frames:	5
Frame Time:	0.0333333
0.000000 0.000000 0.000000 0.000000 0.000000 -0.000000 -2.642770 91.666000 0.940170 85.082200 0.232994 8.259060 15.735700 0.000005 -0.000001 77.841600 85.538800 -75.407100 8.984550 -0.406207 -0.000000 1.004610 -2.021970 4.883330 16.377300 -0.000001 -0.000001 14.683300 2.973800 8.099780 6.456720 -0.000001 -0.000000 -8.385090 -0.056600 20.381100 12.994200 -0.242716 4.980390 -92.500300 6.580230 -69.140500 5.348090 -0.000007 -0.000001 -77.960400 -18.423700 -8.802280 24.328600 0.000019 0.000005 36.213400 -35.805300 -128.623000 22.291600 -0.000001 0.000005 42.617800 5.054670 6.133830 12.994500 -0.242716 -4.980390 86.350100 8.643020 -67.000000 -5.348130 -0.000001 -0.000004 -70.432900 -7.658510 -9.104530 -24.328900 0.000322 -0.000009 15.835700 -17.059400 -135.964000 -22.291500 -0.000108 -0.000004 59.298600 5.681300 -20.210700 -2.192480 -6.469440 -0.000000 -175.697000 3.470830 1.330550 39.081100 -0.000007 -0.000012 0.426494 -0.790651 28.344500 40.985400 -0.000006 -0.000013 0.370954 -0.458177 -76.773900 11.754300 -0.000000 0.000003 -0.001043 0.183650 -9.127010 -2.192510 6.469440 -0.000001 -172.797000 10.295200 -171.874000 -39.081100 -0.002282 -0.040193 0.135789 -0.432740 17.019500 -40.985400 0.000008 0.000006 4.860250 4.238120 -72.819800 -11.754300 -0.000006 -0.000006 -0.011336 0.281033 -5.152900
0.000000 0.000000 0.000000 0.000000 0.000000 -0.000000 -2.574350 91.668200 0.958021 85.106200 0.255272 8.202110 15.735700 0.000005 -0.000001 77.939700 85.532400 -75.528600 8.984550 -0.406207 -0.000000 1.019460 -2.008000 4.836530 16.377300 -0.000001 -0.000001 14.652400 2.954020 8.076230 6.456720 -0.000001 -0.000000 -8.351460 -0.059601 20.340300 12.994200 -0.242716 4.980390 -92.503800 6.577320 -69.105900 5.348090 -0.000007 -0.000001 -78.002800 -18.490600 -8.786350 24.328600 0.000019 0.000005 36.096200 -35.614400 -128.614000 22.291600 -0.000001 0.000005 42.541700 5.057000 6.081880 12.994500 -0.242716 -4.980390 86.350000 8.646940 -67.008800 -5.348130 -0.000001 -0.000004 -70.346300 -7.628530 -8.966850 -24.328900 0.000322 -0.000009 15.867800 -17.039700 -135.871000 -22.291500 -0.000108 -0.000004 59.307100 5.681090 -20.105700 -2.192480 -6.469440 -0.000000 -175.753000 3.407750 1.291840 39.081100 -0.000007 -0.000012 0.424813 -0.788944 28.301700 40.985400 -0.000006 -0.000013 0.434082 -0.427663 -76.674800 11.754300 -0.000000 0.000003 -0.000789 0.179987 -9.275860 -2.192510 6.469440 -0.000001 -172.839000 10.252200 -171.920000 -39.081100 -0.002282 -0.040193 0.138191 -0.440656 17.017100 -40.985400 0.000008 0.000006 4.891550 4.205990 -72.830700 -11.754300 -0.000006 -0.000006 -0.011223 0.280227 -5.185900
0.000000 0.000000 0.000000 0.000000 0.000000 -0.000000 -2.509350 91.689800 0.969485 85.136600 0.294917 8.158770 15.735700 0.000005 -0.000001 78.008100 85.527200 -75.618000 8.984550 -0.406207 -0.000000 1.031260 -1.998260 4.794750 16.377300 -0.000001 -0.000001 14.553400 2.968380 8.003590 6.456720 -0.000001 -0.000000 -8.263840 -0.044851 20.362900 12.994200 -0.242716 4.980390 -92.516300 6.625780 -69.149600 5.348090 -0.000007 -0.000001 -78.049300 -18.679200 -8.790020 24.328600 0.000019 0.000005 36.144300 -35.534500 -128.510000 22.291600 -0.000001 0.000005 42.160000 5.053020 6.170650 12.994500 -0.242716 -4.980390 86.338800 8.679450 -67.022000 -5.348130 -0.000001 -0.000004 -70.317400 -7.634220 -8.855100 -24.328900 0.000322 -0.000009 15.803900 -16.908200 -135.777000 -22.291500 -0.000108 -0.000004 59.226600 5.681290 -20.194000 -2.192480 -6.469440 -0.000000 -175.839000 3.446720 1.337660 39.081100 -0.000007 -0.000012 0.424668 -0.793440 28.157900 40.985400 -0.000006 -0.000013 0.483054 -0.436477 -76.693500 11.754300 -0.000000 0.000003 -0.000875 0.181245 -9.224760 -2.192510 6.469440 -0.000001 -172.936000 10.223100 -171.949000 -39.081100 -0.002282 -0.040193 0.132948 -0.423676 17.011400 -40.985400 0.000008 0.000006 4.584510 4.249780 -72.841300 -11.754300 -0.000006 -0.000006 -0.011860 0.284714 -5.002170
0.000000 0.000000 0.000000 0.000000 0.000000 -0.000000 -2.436600 91.697600 0.995560 85.186200 0.324105 8.129470 15.735700 0.000005 -0.000001 78.106200 85.514100 -75.744700 8.984550 -0.406207 -0.000000 1.059200 -1.986420 4.737880 16.377300 -0.000001 -0.000001 14.548200 3.004810 7.938010 6.456720 -0.000001 -0.000000 -8.268530 0.013324 20.306400 12.994200 -0.242716 4.980390 -92.534000 6.666520 -69.132500 5.348090 -0.000007 -0.000001 -78.024200 -18.773900 -8.777660 24.328600 0.000019 0.000005 36.047200 -35.250600 -128.415000 22.291600 -0.000001 0.000005 41.584500 5.053670 6.156440 12.994500 -0.242716 -4.980390 86.327900 8.717800 -67.051000 -5.348130 -0.000001 -0.000004 -70.306900 -7.588780 -8.793300 -24.328900 0.000322 -0.000009 15.799600 -16.787400 -135.586000 -22.291500 -0.000108 -0.000004 59.031300 5.681180 -20.167000 -2.192480 -6.469440 -0.000000 -175.920000 3.416490 1.360490 39.081100 -0.000007 -0.000012 0.411760 -0.772974 28.045100 40.985400 -0.000006 -0.000013 0.542806 -0.427584 -76.485000 11.754300 -0.000000 0.000003 -0.000702 0.178711 -9.327690 -2.192510 6.469440 -0.000001 -173.027000 10.196100 -171.974000 -39.081100 -0.002282 -0.040193 0.132565 -0.422368 17.013400 -40.985400 0.000008 0.000006 4.520580 4.218500 -72.780300 -11.754300 -0.000006 -0.000006 -0.011528 0.282388 -5.097450
0.000000 0.000000 0.000000 0.000000 0.000000 -0.000000 -2.353890 91.717700 1.010540 85.260600 0.377542 8.088590 15.735700 0.000005 -0.000001 78.102700 85.513900 -75.777300 8.984550 -0.406207 -0.000000 1.058660 -1.984930 4.665680 16.377300 -0.000001 -0.000001 14.526900 3.031180 7.851790 6.456720 -0.000001 -0.000000 -8.253240 0.041809 20.260900 12.994200 -0.242716 4.980390 -92.539800 6.684220 -69.139300 5.348090 -0.000007 -0.000001 -77.922100 -18.780800 -8.663150 24.328600 0.000019 0.000005 35.972500 -34.941700 -128.277000 22.291600 -0.000001 0.000005 40.959500 5.043660 6.375920 12.994500 -0.242716 -4.980390 86.319000 8.759950 -67.099200 -5.348130 -0.000001 -0.000004 -70.277900 -7.563790 -8.705810 -24.328900 0.000322 -0.000009 15.608700 -16.513200 -135.494000 -22.291500 -0.000108 -0.000004 58.652400 5.681330 -20.233400 -2.192480 -6.469440 -0.000000 -176.038000 3.358960 1.412980 39.081100 -0.000007 -0.000012 0.413649 -0.781702 27.887300 40.985400 -0.000006 -0.000013 0.623835 -0.343696 -76.520100 11.754300 -0.000000 0.000003 -0.001055 0.183820 -9.120080 -2.192510 6.469440 -0.000001 -173.125000 10.078300 -171.975000 -39.081100 -0.002282 -0.040193 0.130201 -0.416118 16.956600 -40.985400 0.000008 0.000006 4.406660 4.091570 -72.776200 -11.754300 -0.000006 -0.000006 -0.011419 0.281616 -5.129030
